<svg id="Layer_1" data-name="Layer 1" xmlns="http://www.w3.org/2000/svg" viewBox="0 0 40 40"><defs><style>.cls-1{fill:#4b5259;}.cls-2{fill:none;}</style></defs><title>Artboard 35</title><path class="cls-1" d="M25.11,33H14.89A7.9,7.9,0,0,1,7,25.11V14.89A7.9,7.9,0,0,1,14.89,7H25.11A7.9,7.9,0,0,1,33,14.89V25.11A7.9,7.9,0,0,1,25.11,33ZM14.89,8.41a6.49,6.49,0,0,0-6.48,6.48V25.11a6.49,6.49,0,0,0,6.48,6.48H25.11a6.49,6.49,0,0,0,6.48-6.48V14.89a6.49,6.49,0,0,0-6.48-6.48Z"/><path class="cls-1" d="M20,26.76A6.76,6.76,0,1,1,26.76,20,6.76,6.76,0,0,1,20,26.76Zm0-12.11A5.35,5.35,0,1,0,25.35,20,5.36,5.36,0,0,0,20,14.65Z"/><circle class="cls-1" cx="27.15" cy="12.86" r="1.27"/><rect class="cls-2" width="40" height="40"/></svg>