<svg id="Layer_1" data-name="Layer 1" xmlns="http://www.w3.org/2000/svg" viewBox="0 0 40 40"><defs><style>.cls-1{fill:none;}.cls-2{fill:#4b5259;}</style></defs><title>Artboard 30</title><rect class="cls-1" width="40" height="40"/><path class="cls-2" d="M7.29,9.36V30.64A4.72,4.72,0,0,0,12,35.34H32.71V4.66H12A4.72,4.72,0,0,0,7.29,9.36ZM12,33.93a3.29,3.29,0,0,1-3.29-3.29V29.4A3.29,3.29,0,0,1,12,26.1H31.29v7.83Zm19.29-9.24H12A4.68,4.68,0,0,0,8.71,26V9.36A3.29,3.29,0,0,1,12,6.07H31.29Z"/><rect class="cls-2" x="12.93" y="10.52" width="12.64" height="1.41"/><rect class="cls-2" x="12.93" y="14.47" width="8.48" height="1.41"/></svg>