<svg id="Layer_1" data-name="Layer 1" xmlns="http://www.w3.org/2000/svg" viewBox="0 0 40 40"><defs><style>.cls-1{fill:none;}.cls-2{fill:#4b5259;}</style></defs><title>Artboard 17</title><rect class="cls-1" width="40" height="40"/><path class="cls-2" d="M25.7,7A1.72,1.72,0,0,0,24,5.29H16A1.72,1.72,0,0,0,14.3,7V9.29H6v1.42H9.29v24H30.71v-24H34.1V9.29H25.7Zm-10,0a.29.29,0,0,1,.3-.29h8a.29.29,0,0,1,.3.29V9.29H15.71ZM29.29,33.29H10.71V10.71H29.29Z"/><rect class="cls-2" x="16.29" y="17.12" width="1.41" height="9.78"/><rect class="cls-2" x="22.29" y="17.12" width="1.41" height="9.78"/></svg>