<svg id="Layer_1" data-name="Layer 1" xmlns="http://www.w3.org/2000/svg" viewBox="0 0 40 40"><defs><style>.cls-1{fill:#4b5259;}.cls-2{fill:none;}</style></defs><title>Artboard 38</title><path class="cls-1" d="M12.31,32.49a1.09,1.09,0,0,1-1-1.4l1.13-3.81c-3.75-2-6-5.33-6-9,0-6,6.08-10.81,13.56-10.81s13.56,4.85,13.56,10.81S27.48,29.13,20,29.13A15.87,15.87,0,0,1,17.93,29l-5,3.31A1.08,1.08,0,0,1,12.31,32.49ZM20,8.92c-6.7,0-12.15,4.22-12.15,9.4,0,3.25,2.13,6.22,5.7,8l.53.26-1.21,4.11,4.72-3.11.27,0a15.18,15.18,0,0,0,2.14.15c6.7,0,12.15-4.22,12.15-9.4S26.7,8.92,20,8.92Z"/><path class="cls-1" d="M15.7,16.54H11.82a.51.51,0,0,1-.5-.5.5.5,0,0,1,.5-.49H15.7a.49.49,0,0,1,.49.49A.5.5,0,0,1,15.7,16.54Z"/><path class="cls-1" d="M13.76,21.34a.5.5,0,0,1-.5-.49V16a.5.5,0,0,1,.5-.49.49.49,0,0,1,.49.49v4.81A.49.49,0,0,1,13.76,21.34Z"/><path class="cls-1" d="M25.12,21.34a.5.5,0,0,1-.5-.49V16a.5.5,0,0,1,.5-.49.49.49,0,0,1,.49.49v4.81A.49.49,0,0,1,25.12,21.34Z"/><path class="cls-1" d="M23.66,21.34h-1.9a1,1,0,0,1-1-1V16a.5.5,0,0,1,.5-.49.49.49,0,0,1,.49.49v4.34l1.88,0a.49.49,0,0,1,0,1Z"/><path class="cls-1" d="M19.83,21.34a.49.49,0,0,1-.46-.3l-1.64-4L16.1,21a.49.49,0,1,1-.91-.38L17.12,16a.67.67,0,0,1,1.23,0l1.93,4.71a.49.49,0,0,1-.27.65A.57.57,0,0,1,19.83,21.34Z"/><path class="cls-1" d="M25.13,19.73a.5.5,0,0,1-.35-.84L27.7,16a.49.49,0,0,1,.7.7l-2.92,2.91A.5.5,0,0,1,25.13,19.73Z"/><path class="cls-1" d="M28.18,21.34a.48.48,0,0,1-.38-.18l-2.08-2.6A.5.5,0,0,1,26.5,18l2.07,2.59a.49.49,0,0,1-.08.69A.45.45,0,0,1,28.18,21.34Z"/><path class="cls-1" d="M19.37,20.28H16.1a.5.5,0,1,1,0-1h3.27a.5.5,0,1,1,0,1Z"/><rect class="cls-2" width="40" height="40"/></svg>